<svg xmlns="http://www.w3.org/2000/svg" xmlns:xlink="http://www.w3.org/1999/xlink" viewBox="0,0,256,256" width="27px" height="27px" fill-rule="nonzero"><g fill="rgba(180,149,231, 0.7)" fill-rule="nonzero" stroke="none" stroke-width="1" stroke-linecap="butt" stroke-linejoin="miter" stroke-miterlimit="10" stroke-dasharray="" stroke-dashoffset="0" font-family="none" font-weight="none" font-size="none" text-anchor="none" style="mix-blend-mode: normal"><g transform="scale(5.12,5.12)"><path d="M15,4c-0.55226,0.00006 -0.99994,0.44774 -1,1c0,5.61968 0.75289,8.97998 1.34375,10.78711c-0.21733,0.89142 -0.34375,1.81385 -0.34375,2.76367c0,2.60807 1.14322,4.91524 2.82617,6.75391l-5.52539,15.69531h-4.30078c-1.64497,0 -3,1.35503 -3,3c0,1.64497 1.35503,3 3,3h7.53711h5.04297h0.26953h10h7.15039c0.31474,0.00019 0.61121,-0.1478 0.80024,-0.39945c0.18903,-0.25166 0.24856,-0.57761 0.1607,-0.87984c0,0 -0.56732,-2.38995 -2.55469,-3.55859c-0.04925,-0.02962 -0.34111,-0.44159 -0.45312,-1.30273c-0.11217,-0.86229 -0.08779,-2.04575 0.04102,-3.30078c0.25761,-2.51007 0.92391,-5.34523 1.44141,-6.83594c0.34268,-0.98886 0.51367,-2.02551 0.51367,-3.07031v-2.08594c1.80369,-1.88088 3.05078,-4.2818 3.05078,-7.01562c0,-1.02786 -0.14809,-2.0235 -0.39844,-2.98242c0.1323,-0.12752 0.22691,-0.28903 0.27344,-0.4668c0.54269,-1.93789 1.125,-5.1669 1.125,-10.10156c-0.00006,-0.55226 -0.44774,-0.99994 -1,-1c0,0 -4.6669,-0.03137 -8.62891,2.76367c-1.3637,-0.48461 -2.81801,-0.76367 -4.32422,-0.76367c-1.52804,0 -3.00688,0.28574 -4.39453,0.7832c-3.96761,-2.81369 -8.65234,-2.7832 -8.65234,-2.7832zM39.93359,6.13672c-0.06194,2.69246 -0.2898,4.80125 -0.5625,6.40625c-1.14422,-1.98137 -2.83347,-3.632 -4.83984,-4.78516c2.24892,-1.28398 4.35249,-1.54013 5.40234,-1.62109zM16.07813,6.14063c1.05386,0.08162 3.17381,0.34392 5.42188,1.63672c-2.00584,1.15191 -3.69837,2.79467 -4.84961,4.76563c-0.27376,-1.61093 -0.50746,-3.7021 -0.57227,-6.40234zM28.04688,8c5.87875,0 10.95313,4.84034 10.95313,10.55078c0,2.62667 -1.47793,4.9693 -3.63867,6.69336c-2.16074,1.72406 -4.98086,2.75586 -7.31445,2.75586c-2.3336,0 -5.18303,-1.03402 -7.36719,-2.75977c-2.18416,-1.72574 -3.67969,-4.0679 -3.67969,-6.68945c0,-5.7007 5.16812,-10.55078 11.04688,-10.55078zM22.95703,15.03906c-1.381,0 -2.5,1.119 -2.5,2.5c0,1.381 1.119,2.5 2.5,2.5c1.381,0 2.5,-1.119 2.5,-2.5c0,-1.381 -1.12,-2.5 -2.5,-2.5zM32.94922,15.03906c-1.381,0 -2.5,1.119 -2.5,2.5c0,1.381 1.119,2.5 2.5,2.5c1.381,0 2.5,-1.119 2.5,-2.5c0,-1.381 -1.119,-2.5 -2.5,-2.5zM23.84961,15.55078c0.58,0 1.05078,0.46883 1.05078,1.04883c0,0.58 -0.47078,1.05078 -1.05078,1.05078c-0.58,0 -1.04883,-0.47078 -1.04883,-1.05078c0,-0.58 0.46883,-1.04883 1.04883,-1.04883zM33.875,15.55078c0.58,0 1.05078,0.46883 1.05078,1.04883c0,0.58 -0.47078,1.05078 -1.05078,1.05078c-0.58,0 -1.05078,-0.47078 -1.05078,-1.05078c0,-0.58 0.47078,-1.04883 1.05078,-1.04883zM26.65039,20c-0.386,0 -0.70117,0.31322 -0.70117,0.69922c0,0.386 0.31517,0.70117 0.70117,0.70117c0.386,0 0.69922,0.31322 0.69922,0.69922c0,0.7 0.70117,0.70117 0.70117,0.70117c0,0 0.69922,-0.00117 0.69922,-0.70117c0,-0.386 0.31322,-0.69922 0.69922,-0.69922c0.386,0 0.70117,-0.31517 0.70117,-0.70117c0,-0.386 -0.31517,-0.69922 -0.70117,-0.69922zM19.42188,26.79492c0.00613,0.00486 0.01144,0.01077 0.01758,0.01563c2.53034,1.99926 5.70702,3.18945 8.60742,3.18945c2.65336,0 5.5134,-1.00702 7.90234,-2.70898v0.36133c0,0.8252 -0.13498,1.63887 -0.4043,2.41602c-0.59638,1.71844 -1.26224,4.58791 -1.53906,7.28516c-0.13845,1.34897 -0.18067,2.64496 -0.03516,3.76367c0.14552,1.1187 0.43454,2.18866 1.42188,2.76953c0.38923,0.22888 0.67462,0.68868 0.94141,1.11328h-4.7207c-0.31735,-0.79586 -0.97421,-2.06241 -2.29297,-2.83789c-0.0087,-0.0051 -0.07575,-0.04661 -0.15234,-0.28516c-0.0766,-0.23855 -0.13237,-0.63526 -0.13281,-1.12305c-0.002,-3.00102 0.01563,-5.89844 0.01563,-5.89844c0.00527,-0.27028 -0.09911,-0.53118 -0.28934,-0.72325c-0.19023,-0.19207 -0.45011,-0.29895 -0.72043,-0.29629c-0.5515,0.00542 -0.99451,0.4563 -0.99023,1.00781c0,0 -0.01762,2.90313 -0.01562,5.91211c0.00056,0.61922 0.05586,1.19472 0.22852,1.73242c0.17265,0.5377 0.49365,1.07554 1.04297,1.39844c0.38923,0.22888 0.67461,0.68868 0.94141,1.11328h-7.77539c-0.02162,-0.13541 -0.0243,-0.23624 -0.05859,-0.38477c-0.16676,-0.7221 -0.52693,-1.63427 -1.35352,-2.29102c0.06811,-0.14791 0.27809,-0.44344 0.45313,-1.02148c0.61886,-2.03889 -0.06541,-4.0676 -1.61523,-5.19727c-0.18843,-0.14168 -0.42086,-0.21224 -0.65625,-0.19922c-0.42541,0.0231 -0.78948,0.31316 -0.90704,0.72265c-0.11756,0.40949 0.03719,0.84851 0.38556,1.09375c0.91417,0.66634 1.29204,1.63693 0.87891,2.99805c0,0.00065 0,0.0013 0,0.00195c-0.04489,0.14825 -0.32263,0.50872 -0.50781,1.1543c-0.12086,0.42101 -0.07319,0.88698 0.08984,1.23242c0.16304,0.34545 0.40165,0.57263 0.61914,0.72852c0.28432,0.20358 0.50451,0.68076 0.62891,1.16211h-3.89258h-7.53711c-0.56503,0 -1,-0.43497 -1,-1c0,-0.56503 0.43497,-1 1,-1h5.00781c0.42431,0.00001 0.80245,-0.26774 0.94336,-0.66797z"></path></g></g></svg>